<svg xmlns="http://www.w3.org/2000/svg" viewBox="0 0 720 260" role="img" aria-labelledby="title desc">
  <title id="title">Naturfreeze Cancun</title>
  <desc id="desc">Logo profesional de Naturfreeze Cancun con hoja, copo de nieve y tipografia azul y verde.</desc>
  <defs>
    <linearGradient id="leafGradient" x1="155" x2="295" y1="170" y2="35" gradientUnits="userSpaceOnUse">
      <stop stop-color="#07592a"/>
      <stop offset=".55" stop-color="#42a83e"/>
      <stop offset="1" stop-color="#b6d957"/>
    </linearGradient>
    <linearGradient id="iceGradient" x1="270" x2="410" y1="190" y2="35" gradientUnits="userSpaceOnUse">
      <stop stop-color="#06345f"/>
      <stop offset=".45" stop-color="#0877c9"/>
      <stop offset="1" stop-color="#28b8f0"/>
    </linearGradient>
    <filter id="softShadow" x="-20%" y="-20%" width="140%" height="140%">
      <feDropShadow dx="0" dy="10" stdDeviation="10" flood-color="#06284d" flood-opacity=".18"/>
    </filter>
  </defs>

  <rect width="720" height="260" rx="28" fill="#ffffff"/>
  <g filter="url(#softShadow)">
    <path d="M353 38c-41-22-98-21-140 7-42 27-65 78-54 126 26 7 55 4 82-10 33-17 56-47 68-87 25 28 38 65 34 103 37-15 64-48 72-87 5-24 1-49-10-71-17 29-34 51-52 66 2-16 2-32 0-47Z" fill="#f7fbff"/>
    <path d="M171 168c35 8 78 0 111-29 31-27 45-65 41-106-47 7-89 30-116 65-18 23-29 47-36 70Z" fill="url(#leafGradient)"/>
    <path d="M209 169c15-47 47-85 91-111" fill="none" stroke="#ffffff" stroke-width="12" stroke-linecap="round"/>
    <path d="M352 52v118M310 72l84 78M395 72l-85 78M352 52l-24 24M352 52l24 24M352 170l-24-24M352 170l24-24M306 112h93M318 91l68 41M386 91l-68 41" fill="none" stroke="url(#iceGradient)" stroke-width="12" stroke-linecap="round" stroke-linejoin="round"/>
    <path d="M166 170c-4-48 13-93 48-123 38-33 95-45 144-26" fill="none" stroke="url(#iceGradient)" stroke-width="9" stroke-linecap="round"/>
    <path d="M158 169c24 15 57 18 86 8" fill="none" stroke="#07592a" stroke-width="9" stroke-linecap="round"/>
  </g>

  <text x="35" y="217" fill="#06284d" font-family="Montserrat, Inter, Arial, sans-serif" font-size="54" font-weight="800" letter-spacing="12">NATUR</text>
  <text x="357" y="217" fill="#0877c9" font-family="Montserrat, Inter, Arial, sans-serif" font-size="54" font-weight="800" letter-spacing="12">FREEZE</text>
  <text x="278" y="246" fill="#123b5d" font-family="Montserrat, Inter, Arial, sans-serif" font-size="18" font-weight="700" letter-spacing="13">CANCUN</text>
  <path d="M116 238h126M476 238h126" stroke="#0d6b35" stroke-width="4" stroke-linecap="round"/>
</svg>
