<svg xmlns="http://www.w3.org/2000/svg" viewBox="0 0 640 480">
  <rect width="640" height="480" fill="#fff8f0"/>
  <path d="M0 352c142-52 284-44 426 22 95 44 165 38 214 4v102H0Z" fill="#eaf5e5"/>
  <g transform="translate(116 134)">
    <rect x="190" y="0" width="238" height="252" rx="24" fill="#f8fbff" stroke="#d8e2e9" stroke-width="7"/>
    <rect x="213" y="26" width="192" height="62" rx="10" fill="#0c6b2b"/>
    <text x="234" y="67" font-family="Arial" font-size="29" font-weight="800" fill="#fff">PICOSA</text>
    <g fill="#df6d19" stroke="#b3470f" stroke-width="5">
      <rect x="0" y="146" width="202" height="38" rx="19" transform="rotate(-10 101 165)"/>
      <rect x="20" y="198" width="221" height="38" rx="19" transform="rotate(-5 130 217)"/>
      <rect x="48" y="102" width="192" height="38" rx="19" transform="rotate(12 144 121)"/>
      <rect x="84" y="168" width="194" height="38" rx="19" transform="rotate(9 181 187)"/>
    </g>
    <g fill="#ff9f24" opacity=".55">
      <circle cx="52" cy="155" r="6"/><circle cx="119" cy="133" r="5"/><circle cx="183" cy="204" r="6"/><circle cx="229" cy="147" r="5"/>
    </g>
  </g>
  <text x="36" y="64" font-family="Arial" font-size="34" font-weight="800" fill="#08264b">Tiras de pollo</text>
  <text x="36" y="104" font-family="Arial" font-size="22" font-weight="800" fill="#b71917">Picosas 1 kg</text>
</svg>
